<?xml version="1.0" standalone="no"?>
<!DOCTYPE svg PUBLIC "-//W3C//DTD SVG 20010904//EN"
 "http://www.w3.org/TR/2001/REC-SVG-20010904/DTD/svg10.dtd">
<svg version="1.0" xmlns="http://www.w3.org/2000/svg"
 width="700.000000pt" height="700.000000pt" viewBox="0 0 700.000000 700.000000"
 preserveAspectRatio="xMidYMid meet">
<metadata>
Created by potrace 1.14, written by Peter Selinger 2001-2017
</metadata>
<g transform="translate(0.000000,700.000000) scale(0.100000,-0.100000)"
fill="#000000" stroke="none">
<path d="M6558 6816 c-32 -13 -81 -39 -110 -57 -46 -29 -214 -153 -228 -169
-3 -3 -54 -48 -115 -100 -60 -52 -112 -97 -115 -100 -3 -3 -70 -66 -150 -140
-222 -205 -893 -870 -1180 -1170 -40 -41 -157 -163 -261 -271 -103 -107 -200
-209 -215 -225 -15 -16 -100 -105 -190 -199 -89 -93 -179 -188 -200 -210 -20
-22 -93 -99 -161 -172 -149 -158 -157 -166 -303 -323 -63 -68 -128 -138 -145
-155 -59 -62 -235 -252 -253 -272 -9 -11 -64 -71 -122 -133 -120 -128 -123
-132 -245 -265 -49 -53 -103 -112 -120 -130 -25 -27 -143 -155 -234 -254 -13
-14 -66 -71 -117 -126 -51 -55 -102 -111 -114 -125 -28 -33 -193 -212 -248
-270 -41 -43 -39 -37 78 200 66 135 125 253 131 263 14 26 326 651 1060 2124
392 787 639 1294 641 1315 4 53 -11 93 -45 125 -85 78 -106 74 -447 -96 -732
-366 -1351 -761 -1830 -1169 -91 -78 -108 -94 -257 -242 -192 -191 -330 -361
-442 -544 -183 -299 -377 -914 -426 -1351 -3 -27 -8 -61 -10 -74 -13 -73 -20
-245 -20 -466 0 -306 7 -393 50 -660 44 -271 111 -519 208 -777 l25 -66 -40
-44 c-74 -81 -97 -124 -93 -179 2 -35 11 -60 30 -85 45 -59 77 -67 245 -60 80
4 161 8 180 11 19 2 65 6 102 10 37 3 75 7 85 9 10 2 52 7 93 12 41 4 77 8 80
9 3 1 28 5 55 9 579 89 1210 269 1675 478 147 67 188 86 310 148 689 347 1282
838 1726 1430 112 148 300 438 414 635 120 208 174 317 211 427 47 141 37 246
-31 317 -53 54 -159 78 -260 58 -28 -5 -53 -8 -55 -5 -11 11 107 263 216 458
51 91 266 450 324 540 23 36 59 93 81 128 21 34 157 241 301 460 145 218 316
480 381 582 384 598 449 793 304 915 -60 51 -135 58 -224 21z m-219 -557 c-30
-56 -201 -322 -451 -699 -247 -374 -426 -649 -453 -697 -5 -10 -20 -33 -32
-50 -13 -17 -23 -33 -23 -36 0 -3 -28 -50 -61 -104 -34 -54 -69 -111 -79 -128
-9 -16 -42 -73 -72 -125 -237 -410 -341 -658 -334 -797 5 -86 15 -118 52 -162
60 -70 164 -101 272 -81 40 7 40 7 31 -17 -60 -160 -453 -785 -617 -984 -392
-475 -761 -792 -1277 -1099 -127 -76 -452 -242 -550 -282 -22 -9 -96 -39 -165
-68 -240 -99 -714 -249 -899 -285 -13 -2 -32 -7 -44 -11 -12 -4 -31 -8 -42
-10 -11 -1 -42 -8 -70 -14 -27 -6 -59 -13 -70 -15 -34 -7 -248 -44 -280 -49
-131 -21 -168 -26 -171 -24 -7 8 156 320 186 355 51 58 433 480 510 563 8 9
35 38 59 66 25 27 90 98 145 159 56 60 121 132 146 160 25 27 68 75 97 105 28
30 61 66 72 79 24 28 182 201 226 247 17 18 71 77 120 131 50 54 124 134 165
178 41 44 79 85 85 91 5 6 30 33 55 60 25 27 124 134 220 239 96 104 184 199
195 211 11 11 74 78 140 149 66 71 131 140 145 155 14 15 54 58 89 96 35 38
128 136 205 218 78 82 155 164 171 181 27 29 231 244 360 380 26 28 140 146
254 264 113 117 234 243 269 280 219 229 1059 1062 1158 1148 12 10 61 54 110
99 115 105 158 143 162 144 1 0 -2 -10 -9 -21z m-3212 -756 c-7 -13 -2177
-4365 -2203 -4418 -13 -28 -48 -77 -77 -110 -100 -113 -156 -170 -161 -164
-10 10 -85 265 -111 378 -26 115 -60 304 -69 391 -13 120 -16 148 -21 225 -7
95 -7 385 0 470 16 214 21 256 70 533 2 12 6 30 9 40 3 9 7 28 10 42 9 56 71
274 113 400 140 414 285 643 618 974 378 375 959 783 1630 1147 44 24 103 55
130 71 51 28 70 34 62 21z"/>
</g>
</svg>
